<svg width="109" height="35" viewBox="0 0 109 35" fill="none" xmlns="http://www.w3.org/2000/svg">
<path d="M31.1185 24.5001C30.9483 24.0888 30.7888 23.6564 30.6186 23.2873L29.8316 21.5261L29.7997 21.4945C27.4601 16.4322 24.9609 11.2857 22.3128 6.22345L22.2064 6.01253C21.9406 5.51685 21.6747 4.96844 21.3982 4.46222C21.0579 3.86108 20.7282 3.21776 20.1858 2.60608C19.6571 1.96606 18.9917 1.4504 18.2377 1.09633C17.4837 0.742258 16.6598 0.558594 15.8255 0.558594C14.9912 0.558594 14.1673 0.742258 13.4133 1.09633C12.6592 1.4504 11.9939 1.96606 11.4652 2.60608C10.9653 3.21776 10.5931 3.86108 10.2528 4.46222C9.98693 5.01063 9.72105 5.54849 9.44455 6.04416L9.3382 6.25509C6.73265 11.3173 4.19091 16.4639 1.85123 21.5261L1.78742 21.5894C1.55345 22.1378 1.27694 22.7073 1.01107 23.319C0.840913 23.6881 0.670755 24.0888 0.500596 24.5318C0.0412034 25.6917 -0.105495 26.9502 0.0749582 28.1834C0.255412 29.4166 0.756789 30.5819 1.52968 31.5645C2.30256 32.547 3.32029 33.3129 4.48254 33.7866C5.6448 34.2603 6.91147 34.4256 8.15772 34.266C9.35252 34.11 10.503 33.7154 11.5396 33.1059C12.9222 32.336 14.2515 31.2181 15.7404 29.6045C17.2293 31.2181 18.5906 32.336 19.9412 33.1165C21.24 33.8725 22.7109 34.2897 24.2164 34.3293C25.9599 34.3365 27.647 33.7179 28.9665 32.5878C30.2859 31.4577 31.1485 29.8923 31.395 28.1808C31.6798 26.9509 31.5834 25.6643 31.1185 24.4896V24.5001ZM15.8468 26.2508C14.0176 23.9306 12.8264 21.8003 12.4223 19.9758C12.2549 19.2997 12.2188 18.5982 12.316 17.9087C12.3904 17.3709 12.5925 16.8963 12.869 16.4955C13.5071 15.578 14.6237 15.0085 15.8468 15.0085C16.4276 14.9909 17.0037 15.1166 17.5234 15.3743C18.0432 15.632 18.4902 16.0136 18.8245 16.485C19.101 16.9068 19.3031 17.3709 19.3669 17.9087C19.4733 18.5204 19.4307 19.227 19.2606 19.9758C18.8564 21.7687 17.6653 23.9201 15.8468 26.2508ZM29.3956 27.8117C29.2748 28.6806 28.9265 29.503 28.3853 30.1969C27.8442 30.8908 27.1292 31.432 26.3115 31.7665C25.5032 32.104 24.6099 32.1989 23.7379 32.104C22.8871 31.9985 22.0363 31.7243 21.1642 31.2181C19.7163 30.3307 18.4143 29.228 17.3037 27.9488C19.5371 25.2067 20.8877 22.7073 21.3982 20.482C21.6428 19.4274 21.6747 18.4782 21.5683 17.6029C21.4355 16.7732 21.1235 15.9817 20.6537 15.2827C20.1173 14.5247 19.4013 13.909 18.5687 13.4897C17.7361 13.0704 16.8123 12.8604 15.8787 12.8781C13.9112 12.8781 12.1564 13.7851 11.093 15.2722C10.6142 15.9694 10.3048 16.7672 10.189 17.6029C10.0507 18.4888 10.0826 19.4696 10.3591 20.482C10.8696 22.7073 12.2522 25.2384 14.4536 27.9699C13.3619 29.2736 12.0569 30.3859 10.5931 31.2603C9.71042 31.7665 8.87026 32.0302 8.01947 32.1356C6.69637 32.3037 5.35984 31.9471 4.3004 31.1434C3.24097 30.3396 2.54425 29.1537 2.3617 27.8433C2.25535 26.9996 2.3298 26.1559 2.67012 25.2067C2.77646 24.8693 2.93599 24.5318 3.10615 24.131C3.34011 23.5826 3.61662 23.0131 3.88249 22.4436L3.92503 22.3698C6.22217 17.3392 8.73201 12.2032 11.3376 7.17262L11.4439 6.96169C11.7098 6.45547 11.9757 5.91761 12.2522 5.41139C12.5287 4.87353 12.8264 4.35676 13.2093 3.93491C13.5407 3.54261 13.9548 3.22712 14.4224 3.01065C14.89 2.79418 15.3998 2.682 15.9159 2.682C16.4319 2.682 16.9417 2.79418 17.4094 3.01065C17.877 3.22712 18.2911 3.54261 18.6225 3.93491C18.9947 4.35676 19.3031 4.87353 19.5796 5.41139C19.8455 5.91761 20.1114 6.46602 20.3879 6.96169L20.4942 7.17262C23.0891 12.2032 25.599 17.3392 27.9386 22.3698L27.9705 22.4014C28.247 22.9498 28.481 23.5615 28.7469 24.0888C28.917 24.5001 29.0872 24.8271 29.1936 25.1751C29.3956 26.1243 29.502 26.968 29.3956 27.8117ZM44.1994 26.0188C43.398 26.0304 42.6043 25.863 41.8771 25.5289C41.1499 25.1948 40.5078 24.7026 39.9986 24.0888C38.8544 22.7811 38.2471 21.0948 38.297 19.3641C38.2795 17.5957 38.9064 15.8805 40.0624 14.5339C40.5971 13.9123 41.2628 13.4146 42.0124 13.0757C42.7621 12.7367 43.5776 12.5649 44.4015 12.5723C45.1767 12.5513 45.9445 12.7261 46.6329 13.0803C47.3212 13.4345 47.9074 13.9565 48.3364 14.5972L48.4427 12.9414H51.5481V25.6813H48.4321L48.3257 23.8252C47.8835 24.5093 47.2723 25.0699 46.5501 25.4538C45.8279 25.8378 45.0187 26.0323 44.1994 26.0188ZM45.0076 22.9815C45.6245 22.9815 46.1669 22.8127 46.6773 22.5069C47.1453 22.1694 47.5281 21.7265 47.8259 21.1886C48.0918 20.6508 48.23 20.0074 48.23 19.2903C48.2715 18.6674 48.1492 18.0445 47.8752 17.4826C47.6012 16.9206 47.1848 16.4388 46.6667 16.0842C46.1689 15.7767 45.5941 15.6136 45.0076 15.6136C44.4211 15.6136 43.8464 15.7767 43.3486 16.0842C42.8807 16.4217 42.4978 16.8646 42.2 17.4025C41.9188 17.9957 41.7804 18.6455 41.7959 19.3008C41.7544 19.9237 41.8767 20.5466 42.1507 21.1085C42.4248 21.6705 42.8412 22.1523 43.3592 22.5069C43.8591 22.8127 44.4015 22.9815 45.0076 22.9815ZM56.8656 9.50334C56.8656 9.87246 56.8018 10.2099 56.6316 10.4841C56.4614 10.7478 56.2275 10.9904 55.9191 11.1591C55.6106 11.3278 55.281 11.3911 54.9406 11.3911C54.6003 11.3911 54.26 11.3278 53.9516 11.1591C53.6599 10.9981 53.4146 10.7657 53.2391 10.4841C53.0744 10.1837 52.9936 9.84511 53.0051 9.50334C53.0051 9.12368 53.0795 8.7862 53.2391 8.52254C53.4092 8.20615 53.6538 8.01632 53.9516 7.84758C54.26 7.67884 54.5897 7.60501 54.9406 7.60501C55.2792 7.59728 55.6139 7.67678 55.9122 7.83576C56.2104 7.99474 56.462 8.22774 56.6422 8.51199C56.797 8.81947 56.8737 9.15979 56.8656 9.50334ZM53.2497 25.6391V12.9203H56.6316V25.6602H53.2391L53.2497 25.6391ZM65.6713 16.253V16.2951C65.5117 16.2213 65.299 16.1897 65.1395 16.158C64.9268 16.1159 64.7567 16.1159 64.5546 16.1159C63.6081 16.1159 62.8955 16.3901 62.4276 16.9596C61.9171 17.5396 61.6832 18.3517 61.6832 19.3957V25.6497H58.2906V12.9098H61.4067L61.513 14.8398C61.8533 14.1648 62.2575 13.6586 62.8317 13.2789C63.403 12.91 64.0755 12.7258 64.7567 12.7516C65.0013 12.7516 65.2352 12.7727 65.4373 12.8149C65.5436 12.8465 65.6074 12.8465 65.6713 12.8781V16.253ZM67.0325 25.6391V7.68938H70.4144V14.5445C70.893 13.9328 71.4354 13.4582 72.116 13.0891C73.1935 12.5652 74.4176 12.4166 75.5908 12.6672C76.7639 12.9179 77.8177 13.5532 78.582 14.4706C79.7288 15.7811 80.3363 17.4716 80.2836 19.2059C80.3011 20.9743 79.6742 22.6895 78.5182 24.0361C77.9835 24.6577 77.3179 25.1555 76.5682 25.4944C75.8185 25.8333 75.003 26.0051 74.1792 25.9977C73.404 26.0188 72.6361 25.844 71.9477 25.4897C71.2594 25.1355 70.6732 24.6135 70.2443 23.9728L70.1379 25.6286L67.0325 25.6602V25.6391ZM73.573 22.9815C74.1792 22.9815 74.7216 22.8127 75.232 22.5069C75.7 22.1694 76.0828 21.7265 76.3806 21.1886C76.6571 20.6508 76.7847 20.0074 76.7847 19.2903C76.7847 18.5837 76.6571 17.9404 76.3806 17.4025C76.1013 16.8839 75.7089 16.4335 75.232 16.0842C74.7343 15.7767 74.1595 15.6136 73.573 15.6136C72.9865 15.6136 72.4117 15.7767 71.9139 16.0842C71.4354 16.4217 71.0632 16.8646 70.7547 17.4025C70.4735 17.9957 70.3352 18.6455 70.3506 19.3008C70.3092 19.9237 70.4314 20.5466 70.7054 21.1085C70.9795 21.6705 71.3959 22.1523 71.9139 22.5069C72.4138 22.8127 72.9562 22.9815 73.573 22.9815ZM81.5598 25.6497V12.9098H84.6758L84.7822 14.5656C85.1738 13.9309 85.7292 13.4114 86.3911 13.061C87.053 12.7106 87.7972 12.5419 88.5469 12.5723C89.4042 12.5576 90.2468 12.7939 90.9694 13.2516C91.692 13.7093 92.2624 14.3681 92.6095 15.1456C92.9817 15.9471 93.1837 16.9385 93.1837 18.0458V25.6813H89.7912V18.4888C89.7912 17.6029 89.5891 16.9068 89.185 16.3901C88.7809 15.8838 88.2279 15.6096 87.526 15.6096C87.0155 15.6096 86.5688 15.7151 86.1753 15.9471C85.8031 16.1897 85.4947 16.4955 85.2607 16.9279C85.0242 17.365 84.9069 17.8558 84.9204 18.3517V25.6497H81.5598ZM94.8747 25.6497V7.67884H98.2672V14.5339C98.7267 13.9188 99.3245 13.4184 100.013 13.0724C100.702 12.7264 101.462 12.5443 102.234 12.5407C103.035 12.529 103.829 12.6965 104.556 13.0306C105.284 13.3647 105.926 13.8569 106.435 14.4706C107.573 15.781 108.177 17.4664 108.126 19.1954C108.144 20.9639 107.517 22.6795 106.36 24.0256C105.826 24.6471 105.16 25.1449 104.41 25.4838C103.661 25.8227 102.845 25.9946 102.021 25.9872C101.246 26.0082 100.478 25.8334 99.7899 25.4792C99.1016 25.125 98.5154 24.603 98.0864 23.9623L97.9907 25.6181L94.8747 25.6497ZM101.447 22.9815C102.064 22.9815 102.606 22.8127 103.106 22.5069C103.585 22.1694 103.957 21.7265 104.265 21.1886C104.531 20.6508 104.669 20.0074 104.669 19.2903C104.711 18.6674 104.589 18.0445 104.315 17.4826C104.041 16.9206 103.624 16.4388 103.106 16.0842C102.608 15.7767 102.034 15.6136 101.447 15.6136C100.861 15.6136 100.286 15.7767 99.788 16.0842C99.3201 16.4217 98.9372 16.8646 98.6395 17.4025C98.3426 17.9904 98.2034 18.6441 98.2353 19.3008C98.1939 19.9237 98.3161 20.5466 98.5902 21.1085C98.8642 21.6705 99.2806 22.1523 99.7987 22.5069C100.298 22.8127 100.809 22.9815 101.447 22.9815Z" fill="#858585"/>
</svg>
