<svg width="89" height="90" viewBox="0 0 89 90" fill="none" xmlns="http://www.w3.org/2000/svg">
<path d="M65.6014 31.4758H57.0333V29.2796C57.0333 26.0375 54.4186 23.3931 51.2129 23.3931H36.8245C33.6188 23.3931 31.0041 26.0375 31.0041 29.2796V31.4758H22.436C20.9883 31.4758 19.8213 32.6711 19.8213 34.1203V50.3008C19.8213 51.3615 20.4565 52.3177 21.4167 52.736V63.2391C21.4167 64.7033 22.5985 65.8836 24.0315 65.8836H64.006C65.4537 65.8836 66.6207 64.6884 66.6207 63.2391V52.736C67.5809 52.3326 68.2161 51.3615 68.2161 50.3008V34.1352C68.2309 32.6711 67.0491 31.4758 65.6014 31.4758ZM33.0427 29.3692C33.0427 27.1879 34.7859 25.425 36.9427 25.425H51.08C53.2368 25.425 54.9799 27.1879 54.9799 29.3692V31.4758H33.0427V29.3692ZM64.5821 63.2391C64.5821 63.5678 64.3162 63.8218 64.006 63.8218H24.0315C23.7065 63.8218 23.4553 63.5529 23.4553 63.2391V52.9452H28.6109V55.1414C28.6109 55.7092 29.0689 56.1723 29.6303 56.1723H32.8211C33.3825 56.1723 33.8404 55.7092 33.8404 55.1414V52.9452H54.1822V55.1414C54.1822 55.7092 54.6402 56.1723 55.2015 56.1723H58.3924C58.9538 56.1723 59.4117 55.7092 59.4117 55.1414V52.9452H64.5673V63.2391H64.5821ZM30.3393 54.3944V50.1065C30.3393 49.9272 30.4427 49.7629 30.62 49.6434C30.7825 49.5238 31.0336 49.4641 31.2257 49.4641C31.7132 49.4641 32.112 49.7629 32.112 50.1215V54.4094H30.3393V54.3944ZM55.9254 54.3944V50.1065C55.9254 49.9272 56.0288 49.7629 56.2061 49.6434C56.3686 49.5238 56.6197 49.4641 56.8117 49.4641C57.2992 49.4641 57.6981 49.7629 57.6981 50.1215V54.4094H55.9254V54.3944ZM66.1775 50.3008C66.1775 50.6294 65.9116 50.8834 65.6014 50.8834H59.4265V50.3008C59.4265 48.8515 58.2447 47.6563 56.8117 47.6563C55.364 47.6563 54.197 48.8515 54.197 50.3008V50.8834H33.8404V50.3008C33.8404 48.8366 32.6586 47.6563 31.2257 47.6563C29.7927 47.6712 28.6109 48.8515 28.6109 50.3008V50.8834H22.436C22.111 50.8834 21.8599 50.6145 21.8599 50.3008V34.1352C21.8599 33.8065 22.1258 33.5525 22.436 33.5525H65.6162C65.9412 33.5525 66.1923 33.8215 66.1923 34.1352V50.3008H66.1775Z" fill="#17A398"/>
</svg>
