<svg width="89" height="90" viewBox="0 0 89 90" fill="none" xmlns="http://www.w3.org/2000/svg">
<path d="M57.8463 53.7485C57.5383 53.7485 57.2626 53.8633 57.0519 54.0929L52.7717 58.5857L51.0531 56.618C50.8424 56.3721 50.5343 56.2409 50.2263 56.2409C49.9507 56.2409 49.6913 56.3393 49.4967 56.5196C49.2697 56.7164 49.14 56.9952 49.1238 57.2903C49.1076 57.5854 49.2049 57.8806 49.3994 58.1101L52.7068 61.8815L58.6569 55.6506C58.8677 55.4374 58.9812 55.1587 58.965 54.8471C58.965 54.552 58.8353 54.2732 58.6245 54.0601C58.4137 53.8633 58.1381 53.7485 57.8463 53.7485Z" fill="#D22238"/>
<path d="M54.15 46.3207C53.9068 46.3207 53.6798 46.3371 53.4366 46.3535L53.2096 46.3699L52.4314 32.8915H46.076V30.022C46.076 25.7752 42.6551 22.3154 38.456 22.3154C34.2569 22.3154 30.836 25.7752 30.836 30.022V32.8751H24.4806L23.0863 57.0771C22.9728 58.9136 23.6051 60.6681 24.8534 61.9962C26.1018 63.3408 27.788 64.0623 29.6038 64.0623H45.7355L45.8004 64.1442C47.8594 66.7022 50.9074 68.1615 54.1662 68.1615C60.1163 68.1615 64.9639 63.2588 64.9639 57.2411C64.9639 51.2234 60.1001 46.3207 54.15 46.3207ZM33.0409 30.022C33.0409 27.005 35.4566 24.5618 38.4398 24.5618C41.4229 24.5618 43.8386 27.005 43.8386 30.022V32.8751H33.0409V30.022ZM29.5876 61.8159C28.3878 61.8159 27.2692 61.324 26.4423 60.4385C25.6154 59.5531 25.2101 58.4053 25.275 57.1919L26.5558 35.1051H30.8198V37.3843C30.8198 38.0074 31.3224 38.4993 31.9222 38.4993C32.5221 38.4993 33.0247 37.991 33.0247 37.3843V35.1215H43.8224V37.4007C43.8224 38.0238 44.325 38.5157 44.9249 38.5157C45.5248 38.5157 46.0274 38.0074 46.0274 37.4007V35.1215H50.2913L50.9723 46.7962L50.7939 46.8454C46.3192 48.3047 43.3036 52.486 43.3036 57.2411C43.3036 58.7168 43.5954 60.1434 44.1467 61.4879L44.2764 61.8159H29.5876ZM54.15 65.9151C49.4158 65.9151 45.5734 62.029 45.5734 57.2411C45.5734 52.4532 49.4158 48.5671 54.15 48.5671C58.8841 48.5671 62.7265 52.4532 62.7265 57.2411C62.7265 62.029 58.8679 65.9151 54.15 65.9151Z" fill="#D22238"/>
</svg>
