<svg width="88" height="89" viewBox="0 0 88 89" fill="none" xmlns="http://www.w3.org/2000/svg">
<path d="M62.353 23.2501C61.2992 22.1843 59.8887 21.594 58.3809 21.5776H33.1862C30.1058 21.5776 27.5766 24.1192 27.5766 27.251V29.3006H25.3554C24.6096 29.3006 24.0098 29.9073 24.0098 30.6616C24.0098 31.4159 24.6096 32.0225 25.3554 32.0225H27.5766V38.5158H25.3554C24.6096 38.5322 24.0098 39.1388 24.0098 39.8931C24.0098 40.6474 24.6096 41.2541 25.3554 41.2541H27.5766V47.7473H25.3554C24.6096 47.7473 24.0098 48.3704 24.0098 49.1246C24.0098 49.8789 24.6096 50.4856 25.3554 50.4856H27.5766V56.9788H25.3554C24.6096 56.9788 24.0098 57.5855 24.0098 58.3398C24.0098 59.094 24.6096 59.7007 25.3554 59.7007H27.5766V61.7503C27.5766 64.8822 30.0896 67.4237 33.1862 67.4237H58.3809C61.4775 67.4237 63.9905 64.8822 63.9905 61.7503V27.251C63.9905 25.7425 63.4068 24.3159 62.353 23.2501ZM30.2841 59.7171H32.4891C33.2348 59.7171 33.8347 59.1104 33.8347 58.3562C33.8347 57.6019 33.2348 56.9952 32.4891 56.9952H30.2841V50.502H32.4891C33.2348 50.502 33.8347 49.8953 33.8347 49.141C33.8347 48.3868 33.2348 47.7801 32.4891 47.7801H30.2841V41.2869H32.4891C33.2348 41.2869 33.8347 40.6802 33.8347 39.9259C33.8347 39.1716 33.2348 38.565 32.4891 38.565H30.2841V32.0225H32.4891C33.2348 32.0225 33.8347 31.4159 33.8347 30.6616C33.8347 29.9073 33.2348 29.3006 32.4891 29.3006H30.2841V27.251C30.2841 25.6277 31.5973 24.2995 33.2024 24.2995H58.3809C59.9859 24.2995 61.283 25.6277 61.2992 27.251V61.7503C61.2992 63.3736 59.9859 64.6854 58.3809 64.7018H33.2024C31.5973 64.7018 30.3003 63.3736 30.2841 61.7503V59.7171Z" fill="#662C91"/>
<path d="M45.7832 44.1893C48.6367 44.1893 50.9551 41.8446 50.9551 38.9587C50.9551 36.0728 48.6367 33.728 45.7832 33.728C42.9298 33.728 40.6113 36.0728 40.6113 38.9587C40.6113 41.8446 42.9298 44.1893 45.7832 44.1893ZM45.7832 35.876C47.4531 35.876 48.815 37.2534 48.815 38.9423C48.815 40.6312 47.4531 42.0085 45.7832 42.0085C44.1133 42.0085 42.7514 40.6312 42.7514 38.9423C42.7514 37.2534 44.1133 35.876 45.7832 35.876Z" fill="#662C91"/>
<path d="M38.9421 55.2899H52.6257C53.2094 55.2899 53.6957 54.8144 53.6957 54.2077C53.6957 49.5674 50.2262 45.9272 45.7839 45.9272C41.3416 45.9272 37.8721 49.5674 37.8721 54.2077C37.8721 54.798 38.3585 55.2899 38.9421 55.2899ZM45.7839 48.0753C48.7184 48.0753 51.0206 50.1741 51.4746 53.1255H40.0932C40.5472 50.1905 42.8332 48.0753 45.7839 48.0753Z" fill="#662C91"/>
</svg>
