<svg width="98" height="31" viewBox="0 0 98 31" fill="none" xmlns="http://www.w3.org/2000/svg">
<path d="M72.6377 29.0538L80.679 20.1477L72.6377 11.2402H81.1221L85.1048 15.5669L88.9399 11.2402H97.1283L89.1252 20.1109L97.2382 29.0538H88.719L84.7723 24.6917L80.863 29.0538H72.6377Z" fill="#858585"/>
<path d="M72.6372 7.2466H63.5298V11.2398H72.6372V17.2578H63.5298V22.7816H72.6372V29.0534H56.8359V0.992188H72.6372V7.2466Z" fill="#858585"/>
<path d="M50.1706 0.992188V12.4762H50.0972C48.6215 10.8042 46.7777 10.2232 44.6384 10.2232C40.2562 10.2232 36.9552 13.1597 35.7964 17.0421C34.475 12.7642 31.0671 10.143 26.0137 10.143C21.9098 10.143 18.6692 11.9588 16.978 14.9176V11.2402H8.49526V7.24743H17.7523V0.992188H0.933594V29.0538H8.49526V17.2578H16.0322C15.8075 18.1244 15.6876 19.0521 15.6876 20.0311C15.6876 25.8846 20.2241 29.9918 26.0137 29.9918C30.8822 29.9918 34.0906 27.7388 35.7876 23.6312H29.3076C28.4309 24.8652 27.766 25.2317 26.0137 25.2317C23.9816 25.2317 22.2297 23.4841 22.2297 21.4125H35.4246C35.9968 26.0619 39.6709 30.0716 44.713 30.0716C46.888 30.0716 48.8793 29.017 50.0972 27.2363H50.1706V29.053H56.8363V0.992188H50.1706ZM22.4401 17.3417C22.8606 15.5594 24.263 14.3944 26.0137 14.3944C27.9409 14.3944 29.2719 15.5234 29.622 17.3417C29.7695 17.3417 22.4401 17.3417 22.4401 17.3417ZM46.1254 24.7809C43.6683 24.7809 42.1415 22.5242 42.1415 20.1678C42.1415 17.6491 43.4696 15.2271 46.1254 15.2271C48.8793 15.2271 49.9765 17.6491 49.9765 20.1678C49.9761 22.5564 48.8135 24.7809 46.1254 24.7809Z" fill="#858585"/>
</svg>
