<svg width="148" height="33" viewBox="0 0 148 33" fill="none" xmlns="http://www.w3.org/2000/svg">
<path d="M52.6756 18.8365L51.7992 21.3144H51.7262C51.5801 20.7557 51.3123 19.9054 50.8741 18.8851L46.1755 7.10319H41.5742V25.8814H44.6174V14.2938C44.6174 13.565 44.6174 12.7391 44.593 11.7188C44.5687 11.2086 44.52 10.82 44.4956 10.5284H44.5687C44.7148 11.2572 44.8852 11.7917 45.0069 12.1318L50.655 25.8328H52.7974L58.3968 12.0103C58.5185 11.6945 58.6402 11.0629 58.7619 10.5284H58.835C58.7619 11.9131 58.7133 13.1521 58.6889 13.9051V25.8085H61.9268V7.0546H57.496L52.6756 18.8365ZM64.9943 12.3504H68.1592V25.8085H64.9943V12.3504ZM66.6011 6.66592C66.0655 6.66592 65.6273 6.86026 65.2621 7.20036C64.8969 7.54045 64.7022 7.97772 64.7022 8.51216C64.7022 9.02231 64.8969 9.45957 65.2621 9.79967C65.6273 10.1398 66.0655 10.3098 66.6011 10.3098C67.1367 10.3098 67.5993 10.1155 67.9401 9.79967C68.3053 9.45957 68.5 9.02231 68.5 8.51216C68.5 8.00202 68.3053 7.56475 67.9401 7.20036C67.6236 6.86026 67.1611 6.66592 66.6011 6.66592ZM79.3824 12.2289C78.7981 12.1075 78.1894 12.0346 77.6052 12.0346C76.1688 12.0346 74.8541 12.3504 73.7586 12.982C72.6631 13.6136 71.7866 14.4882 71.2267 15.5813C70.6424 16.6988 70.3503 17.9863 70.3503 19.4681C70.3503 20.7557 70.6424 21.8974 71.2024 22.942C71.7623 23.9623 72.5414 24.7882 73.5882 25.347C74.5864 25.9057 75.7549 26.1972 77.0696 26.1972C78.579 26.1972 79.8693 25.8814 80.8918 25.2984L80.9161 25.2741V22.359L80.7944 22.4561C80.3318 22.7962 79.7962 23.0877 79.2606 23.2578C78.7007 23.4521 78.1894 23.5493 77.7512 23.5493C76.4853 23.5493 75.4871 23.1849 74.7811 22.3833C74.0508 21.6059 73.6856 20.537 73.6856 19.2009C73.6856 17.8162 74.0508 16.7231 74.8055 15.9214C75.5602 15.1198 76.5583 14.7068 77.7756 14.7068C78.7981 14.7068 79.8449 15.0469 80.7944 15.7271L80.9161 15.8242V12.7391L80.8918 12.7148C80.4779 12.5447 80.0153 12.3504 79.3824 12.2289ZM89.8265 12.1318C89.0474 12.1318 88.3171 12.3747 87.6841 12.8848C87.1485 13.3221 86.7833 13.9537 86.4668 14.7068H86.4425V12.3504H83.2776V25.8085H86.4425V18.9337C86.4425 17.7677 86.6859 16.796 87.2215 16.0915C87.7571 15.3627 88.4388 14.9983 89.2665 14.9983C89.5587 14.9983 89.8508 15.0712 90.216 15.1198C90.5568 15.2169 90.8003 15.3141 90.9707 15.4356L91.0924 15.5327V12.3747L91.0194 12.3504C90.8003 12.2046 90.3621 12.1318 89.8265 12.1318ZM98.4447 12.0589C96.2293 12.0589 94.4521 12.7148 93.2105 14.0023C91.9445 15.2898 91.3359 17.0632 91.3359 19.2981C91.3359 21.3873 91.9688 23.0877 93.1861 24.3267C94.4034 25.5413 96.0588 26.1729 98.1282 26.1729C100.295 26.1729 102.023 25.517 103.265 24.2052C104.531 22.8934 105.14 21.1443 105.14 18.9823C105.14 16.8445 104.555 15.1441 103.362 13.9051C102.218 12.6662 100.538 12.0589 98.4447 12.0589ZM100.977 22.4076C100.392 23.1606 99.4672 23.525 98.323 23.525C97.1787 23.525 96.2536 23.1606 95.5963 22.359C94.939 21.6059 94.6225 20.5127 94.6225 19.128C94.6225 17.6948 94.9633 16.6016 95.5963 15.8242C96.2536 15.0469 97.1544 14.6582 98.2986 14.6582C99.4185 14.6582 100.295 15.0226 100.928 15.7757C101.561 16.5287 101.902 17.6219 101.902 19.0552C101.853 20.5127 101.585 21.6545 100.977 22.4076ZM112.2 17.9377C111.202 17.5247 110.569 17.2089 110.276 16.9417C110.033 16.6988 109.911 16.3587 109.911 15.9214C109.911 15.557 110.057 15.1926 110.423 14.9497C110.788 14.7068 111.202 14.5853 111.81 14.5853C112.346 14.5853 112.906 14.6825 113.441 14.8282C113.977 14.974 114.464 15.1926 114.853 15.4841L114.975 15.5813V12.6176L114.902 12.5933C114.537 12.4476 114.05 12.3018 113.466 12.1803C112.881 12.0832 112.346 12.0346 111.908 12.0346C110.398 12.0346 109.157 12.399 108.183 13.2006C107.209 13.9537 106.746 14.974 106.746 16.1643C106.746 16.7959 106.844 17.3547 107.063 17.8162C107.282 18.2778 107.598 18.7151 108.037 19.0795C108.475 19.4196 109.108 19.8082 109.984 20.1726C110.715 20.4884 111.275 20.7314 111.615 20.9257C111.956 21.12 112.175 21.3387 112.346 21.5087C112.468 21.7031 112.541 21.946 112.541 22.2618C112.541 23.1606 111.859 23.5979 110.471 23.5979C109.936 23.5979 109.376 23.5007 108.718 23.2821C108.061 23.0635 107.452 22.7476 106.941 22.3833L106.819 22.2861V25.3713L106.892 25.3955C107.355 25.6142 107.915 25.7599 108.597 25.93C109.278 26.0514 109.887 26.1486 110.423 26.1486C112.054 26.1486 113.393 25.7842 114.342 24.9826C115.316 24.2052 115.827 23.2092 115.827 21.9217C115.827 21.0229 115.584 20.2212 115.048 19.6139C114.342 19.0309 113.466 18.4236 112.2 17.9377ZM124.178 12.0589C121.962 12.0589 120.185 12.7148 118.943 14.0023C117.702 15.2898 117.069 17.0632 117.069 19.2981C117.069 21.3873 117.702 23.0877 118.919 24.3267C120.136 25.5413 121.792 26.1729 123.861 26.1729C126.028 26.1729 127.756 25.517 128.998 24.2052C130.264 22.8934 130.873 21.1443 130.873 18.9823C130.873 16.8445 130.288 15.1441 129.095 13.9051C127.951 12.6662 126.271 12.0589 124.178 12.0589ZM126.685 22.4076C126.101 23.1606 125.176 23.525 124.032 23.525C122.863 23.525 121.962 23.1606 121.305 22.359C120.648 21.6059 120.331 20.5127 120.331 19.128C120.331 17.6948 120.672 16.6016 121.305 15.8242C121.962 15.0469 122.863 14.6582 124.007 14.6582C125.103 14.6582 126.003 15.0226 126.636 15.7757C127.269 16.5287 127.61 17.6219 127.61 19.0552C127.61 20.5127 127.294 21.6545 126.685 22.4076ZM147.792 14.9497V12.3504H144.603V8.36641L144.506 8.3907L141.487 9.28953L141.414 9.31382V12.3504H136.642V10.6499C136.642 9.87255 136.837 9.26523 137.178 8.87655C137.519 8.48787 138.03 8.29353 138.663 8.29353C139.101 8.29353 139.564 8.3907 140.075 8.60933L140.197 8.68221V5.93714L140.124 5.91285C139.686 5.76709 139.101 5.66992 138.347 5.66992C137.397 5.66992 136.569 5.88856 135.815 6.25295C135.06 6.66592 134.5 7.22465 134.086 7.97772C133.672 8.7065 133.453 9.53245 133.453 10.4799V12.3504H131.238V14.9254H133.453V25.8085H136.642V14.9497H141.414V21.8731C141.414 24.7154 142.753 26.1486 145.431 26.1486C145.869 26.1486 146.332 26.0757 146.77 26.0029C147.233 25.9057 147.573 25.7842 147.768 25.6871L147.792 25.6628V23.0635L147.671 23.1606C147.476 23.2821 147.306 23.3793 147.013 23.4521C146.77 23.525 146.551 23.5493 146.38 23.5493C145.747 23.5493 145.309 23.4035 144.993 23.0392C144.701 22.6991 144.555 22.1403 144.555 21.3144V14.9497H147.792Z" fill="#858585"/>
<path d="M0.772461 0.787109H15.6961V15.6785H0.772461V0.787109Z" fill="#858585"/>
<path d="M17.2539 0.787109H32.1775V15.6785H17.2539V0.787109Z" fill="#858585"/>
<path d="M0.771484 17.2334H15.6951V32.1248H0.771484V17.2334Z" fill="#858585"/>
<path d="M17.2539 17.2334H32.1775V32.1248H17.2539V17.2334Z" fill="#858585"/>
</svg>
