<svg width="102" height="34" viewBox="0 0 102 34" fill="none" xmlns="http://www.w3.org/2000/svg">
<path d="M43.6791 17.8887C43.6791 22.573 39.9606 26.0249 35.3972 26.0249C30.8337 26.0249 27.1152 22.573 27.1152 17.8887C27.1152 13.1713 30.8337 9.75244 35.3972 9.75244C39.9606 9.75244 43.6791 13.1713 43.6791 17.8887ZM40.0537 17.8887C40.0537 14.9614 37.8985 12.9585 35.3972 12.9585C32.8958 12.9585 30.7407 14.9614 30.7407 17.8887C30.7407 20.7866 32.8958 22.8188 35.3972 22.8188C37.8985 22.8188 40.0537 20.7829 40.0537 17.8887Z" fill="#858585"/>
<path d="M61.5443 17.8887C61.5443 22.573 57.8258 26.0249 53.2624 26.0249C48.699 26.0249 44.9805 22.573 44.9805 17.8887C44.9805 13.1749 48.699 9.75244 53.2624 9.75244C57.8258 9.75244 61.5443 13.1713 61.5443 17.8887ZM57.9189 17.8887C57.9189 14.9614 55.7637 12.9585 53.2624 12.9585C50.7611 12.9585 48.6059 14.9614 48.6059 17.8887C48.6059 20.7866 50.7611 22.8188 53.2624 22.8188C55.7637 22.8188 57.9189 20.7829 57.9189 17.8887Z" fill="#858585"/>
<path d="M78.6667 10.244V24.851C78.6667 30.8597 75.0711 33.3137 70.8203 33.3137C66.8189 33.3137 64.4106 30.6763 63.5024 28.5193L66.6588 27.2244C67.2209 28.5487 68.5981 30.1113 70.8166 30.1113C73.5375 30.1113 75.2237 28.4569 75.2237 25.3426V24.1724H75.0971C74.2857 25.1592 72.7223 26.0212 70.7496 26.0212C66.6216 26.0212 62.8398 22.4777 62.8398 17.918C62.8398 13.3253 66.6216 9.75244 70.7496 9.75244C72.7186 9.75244 74.2819 10.6145 75.0971 11.5719H75.2237V10.2477H78.6667V10.244ZM75.4805 17.918C75.4805 15.0531 73.5412 12.9585 71.0734 12.9585C68.5721 12.9585 66.4765 15.0531 66.4765 17.918C66.4765 20.7536 68.5721 22.8188 71.0734 22.8188C73.5412 22.8188 75.4805 20.7536 75.4805 17.918Z" fill="#858585"/>
<path d="M84.3447 1.68262V25.5264H80.8086V1.68262H84.3447Z" fill="#858585"/>
<path d="M98.1235 20.5668L100.937 22.4156C100.029 23.7398 97.8406 26.0215 94.0588 26.0215C89.3688 26.0215 85.8662 22.4486 85.8662 17.8852C85.8662 13.0468 89.3986 9.74902 93.6531 9.74902C97.9374 9.74902 100.033 13.1092 100.718 14.925L101.094 15.8494L90.0574 20.354C90.9024 21.9864 92.2163 22.8191 94.0588 22.8191C95.905 22.8191 97.1855 21.924 98.1235 20.5668ZM89.4619 17.6395L96.8393 14.6205C96.4336 13.6044 95.2127 12.8964 93.7759 12.8964C91.9334 12.8964 89.3688 14.4994 89.4619 17.6395Z" fill="#858585"/>
<path d="M13.7292 15.7718V12.32H25.5324C25.6478 12.9216 25.7073 13.6332 25.7073 14.4035C25.7073 16.9933 24.9889 20.1957 22.6737 22.4774C20.4218 24.7884 17.5445 26.0209 13.733 26.0209C6.66819 26.0209 0.727539 20.3498 0.727539 13.3874C0.727539 6.42505 6.66819 0.753906 13.733 0.753906C17.6413 0.753906 20.4255 2.26523 22.5174 4.23509L20.0458 6.67083C18.5458 5.28422 16.5135 4.20575 13.7292 4.20575C8.57025 4.20575 4.53536 8.3032 4.53536 13.3874C4.53536 18.4716 8.57025 22.5691 13.7292 22.5691C17.0755 22.5691 18.9813 21.2449 20.2022 20.0417C21.1923 19.0659 21.8437 17.672 22.1005 15.7681L13.7292 15.7718Z" fill="#858585"/>
</svg>
