<svg width="103" height="30" viewBox="0 0 103 30" fill="none" xmlns="http://www.w3.org/2000/svg">
<path d="M11.7718 5.78125V13.9408H4.33726V5.78125H0.807617V25.2588H4.33726V17.3642H11.7718V25.2588H15.3015V5.78125H11.7718Z" fill="#858585"/>
<path d="M26.5983 18.9626C26.5983 19.7432 26.2907 20.4919 25.743 21.0438C25.1954 21.5958 24.4527 21.9059 23.6783 21.9059C22.9038 21.9059 22.1611 21.5958 21.6135 21.0438C21.0659 20.4919 20.7582 19.7432 20.7582 18.9626V10.6201H17.4102V18.9626C17.4102 20.6366 18.0699 22.2421 19.2443 23.4258C20.4186 24.6095 22.0114 25.2745 23.6722 25.2745C25.333 25.2745 26.9258 24.6095 28.1001 23.4258C29.2745 22.2421 29.9343 20.6366 29.9343 18.9626V10.6201H26.5983V18.9626Z" fill="#858585"/>
<path d="M51.4049 11.4795C51.4049 9.76949 52.5273 9.22738 53.7569 9.22738C54.7478 9.22738 56.057 9.98738 56.913 10.9095L59.1058 8.30527C58.0111 6.81317 55.7906 5.78125 53.9731 5.78125C50.3414 5.78125 47.7145 7.92528 47.7145 11.4795C47.7145 18.0737 55.7111 15.9819 55.7111 19.6721C55.7111 20.8104 54.6147 21.8161 53.3591 21.8161C51.379 21.8161 50.7374 20.84 49.8278 19.8081L47.3945 22.3582C48.951 24.2844 50.8706 25.2623 53.1706 25.2623C56.6207 25.2623 59.3964 23.0921 59.3964 19.7C59.3964 12.3789 51.3998 14.6537 51.3998 11.4795" fill="#858585"/>
<path d="M100.875 22.1475C98.8963 22.1475 98.3342 21.2847 98.3342 19.9634V14.1153H101.409V11.152H98.3342V7.24219L94.9395 8.77787V20.6903C94.9395 23.7372 97.0251 25.2729 99.8854 25.2729C100.334 25.2812 100.782 25.245 101.224 25.1649L102.052 22.0918C101.679 22.1179 101.25 22.144 100.875 22.144" fill="#858585"/>
<path d="M39.3413 10.7181C37.6828 10.7181 36.5259 11.2027 35.407 12.3096V5.89844H32.0537V17.7812C32.0537 22.2296 35.2444 25.2766 38.8294 25.2766C42.8069 25.2766 46.3055 22.1756 46.3055 17.9991C46.3055 13.8749 43.0854 10.7199 39.3413 10.7199V10.7181ZM39.3205 21.8758C38.568 21.8758 37.8325 21.6509 37.2068 21.2295C36.5811 20.8081 36.0935 20.2092 35.8055 19.5085C35.5176 18.8078 35.4422 18.0367 35.589 17.2928C35.7358 16.5489 36.0982 15.8656 36.6303 15.3293C37.1623 14.793 37.8403 14.4278 38.5783 14.2798C39.3163 14.1318 40.0813 14.2078 40.7765 14.498C41.4717 14.7883 42.0659 15.2798 42.4839 15.9104C42.902 16.5411 43.1251 17.2825 43.1251 18.0409C43.1251 19.058 42.7243 20.0334 42.0108 20.7526C41.2973 21.4718 40.3296 21.8758 39.3205 21.8758Z" fill="#858585"/>
<path d="M75.7517 17.8209C75.7517 13.6375 72.2601 10.5435 68.2757 10.5435C64.6907 10.5435 61.5 13.5904 61.5 18.0388V29.9286H64.8532V23.5087C65.9704 24.6138 67.1291 25.1002 68.7858 25.1002C72.5299 25.1002 75.75 21.9469 75.75 17.8209H75.7517ZM72.5766 17.7791C72.5766 18.5376 72.3535 19.279 71.9354 19.9096C71.5174 20.5403 70.9232 21.0318 70.228 21.322C69.5328 21.6123 68.7678 21.6882 68.0298 21.5403C67.2917 21.3923 66.6138 21.0271 66.0817 20.4907C65.5496 19.9544 65.1873 19.2711 65.0405 18.5272C64.8937 17.7834 64.969 17.0123 65.257 16.3116C65.545 15.6109 66.0326 15.0119 66.6583 14.5906C67.2839 14.1692 68.0195 13.9443 68.772 13.9443C69.781 13.9443 70.7488 14.3483 71.4623 15.0675C72.1758 15.7866 72.5766 16.762 72.5766 17.7791Z" fill="#858585"/>
<path d="M86.5832 10.3796V6.98403C87.0284 6.77435 87.4053 6.44153 87.6702 6.02431C87.935 5.6071 88.0768 5.12264 88.0791 4.62734V4.5489C88.0791 3.85545 87.8058 3.1904 87.3193 2.70005C86.8328 2.20971 86.173 1.93423 85.485 1.93423H85.4072C84.7192 1.93423 84.0594 2.20971 83.5729 2.70005C83.0865 3.1904 82.8132 3.85545 82.8132 4.5489V4.62734C82.8154 5.12264 82.9572 5.6071 83.2221 6.02431C83.4869 6.44153 83.8639 6.77435 84.3091 6.98403V10.3796C83.0295 10.5769 81.8244 11.1115 80.8157 11.9292L71.5774 4.67615C71.6428 4.43697 71.6777 4.19036 71.6812 3.9423C71.6822 3.35959 71.5118 2.78966 71.1914 2.30461C70.871 1.81955 70.4152 1.44116 69.8814 1.21729C69.3477 0.993421 68.76 0.934134 68.1928 1.04693C67.6257 1.15972 67.1044 1.43953 66.695 1.85095C66.2856 2.26238 66.0065 2.78695 65.8929 3.3583C65.7793 3.92965 65.8364 4.52212 66.0569 5.06077C66.2774 5.59942 66.6515 6.06005 67.1318 6.3844C67.6121 6.70875 68.177 6.88224 68.7551 6.88293C69.2606 6.88065 69.7567 6.74482 70.1939 6.48898L79.2922 13.6235C78.4746 14.8681 78.0481 16.332 78.0682 17.8245C78.0882 19.3169 78.5539 20.7687 79.4046 21.9905L76.6376 24.7794C76.4138 24.7074 76.1807 24.6692 75.9458 24.6661C75.4712 24.6665 75.0074 24.8086 74.6129 25.0746C74.2184 25.3406 73.911 25.7185 73.7296 26.1605C73.5481 26.6025 73.5007 27.0889 73.5934 27.558C73.6861 28.0272 73.9147 28.4581 74.2502 28.7964C74.5858 29.1346 75.0134 29.365 75.4788 29.4584C75.9443 29.5519 76.4268 29.5041 76.8653 29.3212C77.3039 29.1383 77.6788 28.8284 77.9427 28.4308C78.2066 28.0332 78.3476 27.5657 78.3479 27.0873C78.345 26.8506 78.3071 26.6156 78.2355 26.3901L80.9731 23.6307C81.8658 24.3231 82.9038 24.8004 84.0077 25.026C85.1117 25.2516 86.2522 25.2196 87.3419 24.9323C88.4316 24.6451 89.4417 24.1103 90.2947 23.3688C91.1477 22.6274 91.8211 21.699 92.2631 20.6547C92.7052 19.6105 92.9043 18.4781 92.8452 17.3444C92.7861 16.2106 92.4704 15.1055 91.9221 14.1137C91.3739 13.122 90.6077 12.2698 89.6823 11.6226C88.7569 10.9753 87.6968 10.5501 86.5832 10.3796ZM85.4487 21.546C84.6999 21.5453 83.968 21.3209 83.3457 20.9011C82.7234 20.4812 82.2385 19.8849 81.9523 19.1874C81.6661 18.4899 81.5915 17.7226 81.7379 16.9823C81.8843 16.2421 82.2451 15.5622 82.7747 15.0286C83.3044 14.495 83.9791 14.1317 84.7135 13.9845C85.448 13.8372 86.2092 13.9128 86.9011 14.2016C87.593 14.4903 88.1844 14.9794 88.6006 15.6068C89.0168 16.2343 89.2391 16.972 89.2395 17.7268C89.2395 18.7393 88.8405 19.7102 88.1302 20.4261C87.42 21.142 86.4566 21.5442 85.4522 21.5442" fill="#858585"/>
</svg>
