<svg width="135" height="33" viewBox="0 0 135 33" fill="none" xmlns="http://www.w3.org/2000/svg">
<path d="M48.08 11.9334V13.7094H48.1343C48.7733 12.7586 49.8342 11.6388 52.1857 11.6388C54.0152 11.6388 55.4186 12.57 56.02 13.9766H56.0743C56.5881 13.2654 57.177 12.7271 57.8369 12.346C58.618 11.8941 59.4868 11.6348 60.5811 11.6348C63.0579 11.6348 65.2507 13.2458 65.2507 17.3085V25.0135H61.4749V17.8468C61.4749 15.7879 60.7314 14.5974 59.186 14.5974C58.0541 14.5974 57.2313 15.3125 56.918 16.1926C56.8094 16.4952 56.7593 16.9077 56.7593 17.2535V25.0174H52.9835V17.556C52.9835 15.8076 52.2693 14.5935 50.7447 14.5935C49.5251 14.5935 48.7608 15.4972 48.4475 16.2712C48.3139 16.6012 48.2721 16.9824 48.2721 17.3399V25.0135H44.4921V11.9334H48.08ZM84.7396 11.9334V14.4009H84.844C85.5374 12.5149 87.183 11.6388 88.6282 11.6388C88.9916 11.6388 89.1921 11.6663 89.4845 11.7213V15.1475C89.1378 15.1003 88.8162 15.0532 88.3651 15.0532C86.7278 15.0532 85.5875 15.949 85.2993 17.3517C85.2367 17.6425 85.2158 17.9568 85.2158 18.3183V25.0174H81.3397V11.9334H84.7396ZM94.7472 7.59961V11.7173H98.0218V15.0492H94.7472V19.9646C94.7472 21.5559 95.1774 22.326 96.4555 22.326C97.057 22.326 97.4997 22.2552 97.884 22.1649L97.9341 24.9271C97.4203 25.1078 96.326 25.3043 95.215 25.3043C93.9077 25.3043 92.8175 24.876 92.1534 24.212C91.3932 23.4536 91.0424 22.212 91.0424 20.4439V7.59961H94.7472ZM41.8607 25.0135H38.1016V7.59961H41.8607V25.0135ZM31.8364 20.3418C31.8364 20.5814 31.8155 20.8329 31.7445 21.049C31.4522 21.9566 30.4539 22.7228 29.2092 22.7228C28.1692 22.7228 27.3422 22.1688 27.3422 20.994C27.3422 19.1984 29.4473 18.6994 31.8406 18.7112V20.3418H31.8364ZM35.5914 17.2103C35.5914 14.2438 34.2464 11.6388 29.6979 11.6388C27.3631 11.6388 25.5086 12.2556 24.4978 12.8057L25.2371 15.1868C26.1602 14.6367 27.6346 14.1848 29.0296 14.1848C31.3394 14.1809 31.7153 15.4146 31.7153 16.2044V16.393C26.6823 16.3851 23.5037 18.0236 23.5037 21.3633C23.5037 23.4026 25.1202 25.3121 27.9353 25.3121C29.6687 25.3121 31.1138 24.6638 31.9826 23.6226H32.0662C32.0662 23.6226 32.6425 25.8818 35.8086 25.0174C35.6415 24.0744 35.5872 23.0725 35.5872 21.8663V17.2103H35.5914ZM4.62048 7.59961C5.00892 9.44237 6.11159 14.7938 6.11159 14.7938C6.57521 16.9942 7.00125 19.3005 7.32286 21.1237H7.38133C7.69459 19.1866 8.18745 17.3517 8.71373 15.0807L10.5724 7.59961H14.6865L16.4241 15.2732C16.8794 17.4067 17.2427 19.053 17.5309 21.0372H17.5852C17.8985 19.0334 18.3078 17.3203 18.7547 15.1278L20.4254 7.59961H24.3725L19.4815 25.0135C16.3656 25.6539 15.171 24.4752 14.745 22.6049C14.319 20.7308 13.4836 17.167 13.4836 17.167C13.0534 15.2143 12.7193 13.8391 12.4854 11.8352H12.4269C12.0928 13.8194 11.7419 15.2103 11.224 17.1631L9.17318 25.0174C5.99046 25.6147 4.88779 24.7306 4.27798 22.3299C3.75171 20.275 0.46875 7.60354 0.46875 7.60354H4.62048V7.59961ZM75.0745 20.3418C75.0745 20.5814 75.0536 20.8329 74.9826 21.049C74.6903 21.9566 73.692 22.7228 72.4473 22.7228C71.4073 22.7228 70.5803 22.1688 70.5803 20.994C70.5803 19.1984 72.6854 18.6994 75.0787 18.7112V20.3418H75.0745ZM78.8295 17.2103C78.8295 14.2438 77.4845 11.6388 72.936 11.6388C70.6012 11.6388 68.7467 12.2556 67.7359 12.8057L68.4752 15.1868C69.3983 14.6367 70.8727 14.1848 72.2677 14.1848C74.5733 14.1809 74.9534 15.4146 74.9534 16.2044V16.393C69.9246 16.3851 66.746 18.0236 66.746 21.3633C66.746 23.4026 68.3666 25.3121 71.1776 25.3121C72.9068 25.3121 74.3561 24.6638 75.2207 23.6226H75.3084C75.3084 23.6226 75.8848 25.8818 79.0508 25.0174C78.8838 24.0744 78.8295 23.0725 78.8295 21.8663V17.2103Z" fill="#858585"/>
<path d="M113.26 19.016C113.631 19.652 113.606 20.3618 113.21 20.6859L106.374 25.4083C105.662 25.8144 104.596 25.3221 103.993 24.2923C103.385 23.2584 103.493 22.1055 104.205 21.6993L111.774 18.2283C112.249 18.0478 112.89 18.3801 113.26 19.016ZM122.257 19.016C122.632 18.3801 123.269 18.0519 123.744 18.2242L131.317 21.6952C132.029 22.1014 132.133 23.2543 131.529 24.2882C130.921 25.318 129.851 25.8062 129.144 25.4042L122.307 20.6818C121.916 20.3618 121.887 19.6479 122.257 19.016ZM117.757 21.5762C118.502 21.5762 119.114 21.9537 119.197 22.4501L119.934 30.6476C119.934 31.46 118.973 32.1246 117.761 32.1246C116.554 32.1246 115.588 31.46 115.588 30.6476L116.32 22.4501C116.404 21.9537 117.016 21.5762 117.757 21.5762ZM122.307 12.2299L129.144 7.50346C129.851 7.09728 130.921 7.58552 131.529 8.61943C132.133 9.65335 132.029 10.8062 131.317 11.2124L123.744 14.6875C123.269 14.8599 122.628 14.5316 122.257 13.8957C121.887 13.2597 121.916 12.55 122.307 12.2299ZM111.774 14.6875L104.205 11.2124C103.497 10.8062 103.389 9.65335 103.993 8.61943C104.596 7.58552 105.666 7.09728 106.374 7.50346L113.21 12.2299C113.606 12.5459 113.631 13.2597 113.26 13.8957C112.89 14.5316 112.249 14.8599 111.774 14.6875ZM116.32 10.4616L115.588 2.26413C115.588 1.45177 116.549 0.787109 117.761 0.787109C118.973 0.787109 119.934 1.45177 119.934 2.26413L119.197 10.4616C119.114 10.954 118.502 11.3355 117.757 11.3355C117.016 11.3355 116.404 10.954 116.32 10.4616ZM133.378 25.3754V25.1703H133.565C133.628 25.1703 133.669 25.2113 133.669 25.2729C133.669 25.3303 133.628 25.3754 133.565 25.3754H133.378ZM133.224 25.7488C133.224 25.7693 133.24 25.7898 133.265 25.7898H133.344C133.365 25.7898 133.386 25.7693 133.386 25.7488V25.5149H133.515L133.619 25.7611C133.628 25.7775 133.64 25.7898 133.657 25.7898H133.752C133.782 25.7898 133.802 25.7611 133.79 25.7324C133.752 25.6585 133.715 25.5806 133.678 25.5026C133.74 25.4821 133.836 25.4206 133.836 25.2729C133.836 25.117 133.707 25.0267 133.578 25.0267H133.265C133.245 25.0267 133.224 25.0472 133.224 25.0677V25.7488ZM132.886 25.4083C132.886 25.0759 133.161 24.8051 133.498 24.8051C133.836 24.8051 134.111 25.0718 134.111 25.4083C134.111 25.7406 133.84 26.0114 133.498 26.0114C133.157 26.0114 132.886 25.7406 132.886 25.4083ZM132.741 25.4083C132.741 25.8185 133.078 26.155 133.498 26.155C133.915 26.155 134.256 25.8185 134.256 25.4083C134.256 24.998 133.915 24.6615 133.498 24.6615C133.078 24.6615 132.741 24.998 132.741 25.4083Z" fill="#858585"/>
</svg>
