<svg width="48" height="49" viewBox="0 0 48 49" fill="none" xmlns="http://www.w3.org/2000/svg">
<path d="M27.9125 9.06055H26.7935V28.1955L15.3193 43.5827L16.2212 44.2431C19.6284 46.7361 23.6703 48.0404 27.9292 48.0404C38.8022 48.0404 47.6541 39.2901 47.6541 28.5422C47.6374 17.7943 38.7854 9.06055 27.9125 9.06055ZM27.9125 45.8115C24.6557 45.8115 21.4823 44.92 18.7432 43.236L18.476 43.0709L29.0483 28.9054V11.3224L29.3489 11.3389C38.3345 12.0653 45.3827 19.6269 45.3827 28.5422C45.3827 38.0684 37.5495 45.8115 27.9125 45.8115Z" fill="#3D3D3D"/>
<path d="M5.51552 12.1152L4.78064 12.9572C1.69079 16.4904 0.00390625 21.0141 0.00390625 25.6864C0.00390625 28.7902 0.755492 31.8776 2.19185 34.6182C3.57811 37.2763 5.59903 39.6042 8.0208 41.3873L8.9227 42.0476L21.2487 25.5378L5.51552 12.1152ZM8.47175 38.8943L8.23792 38.6961C4.4299 35.4107 2.25865 30.6723 2.25865 25.6864C2.25865 22.0047 3.41108 18.5046 5.59903 15.5328L5.78275 15.2851L18.2089 25.868L8.47175 38.8943Z" fill="#3D3D3D"/>
<path d="M21.9665 0.954102H20.8475C16.0875 0.954102 11.5613 3.00133 8.438 6.58397L7.70312 7.42598L21.9665 19.5938V0.954102ZM19.7118 14.7068L10.9099 7.19484L11.1437 6.98021C13.3985 4.88345 16.3213 3.54615 19.4111 3.23247L19.7285 3.19945V14.7068H19.7118Z" fill="#3D3D3D"/>
</svg>
