<svg width="34" height="49" viewBox="0 0 34 49" fill="none" xmlns="http://www.w3.org/2000/svg">
<path d="M32.0241 8.95679H25.8276L25.2689 7.29995C25.1504 6.9485 24.8118 6.69746 24.4224 6.69746H21.5104V4.58875C21.5104 2.44658 19.7496 0.706055 17.5825 0.706055H16.0588C13.9256 0.706055 12.1648 2.44658 12.1648 4.58875V6.7142H9.25277C8.86337 6.7142 8.52477 6.9485 8.40625 7.31669L7.84756 8.97353H1.65104C0.736797 8.97353 0.00878906 9.7099 0.00878906 10.5969V47.3487C0.00878906 48.2524 0.753728 48.972 1.65104 48.972H32.0072C32.9214 48.972 33.6495 48.2357 33.6495 47.3487V10.5802C33.6664 9.69317 32.9214 8.95679 32.0241 8.95679ZM13.9425 7.58446V4.58875C13.9425 3.41725 14.9075 2.46331 16.0926 2.46331H17.6164C18.8015 2.46331 19.7665 3.41725 19.7665 4.58875V7.58446C19.7665 8.0698 20.1559 8.45472 20.6469 8.45472H23.796L24.7271 11.1994H8.96496L9.89614 8.45472H13.0452C13.5362 8.45472 13.9425 8.0698 13.9425 7.58446ZM6.89945 11.8019C6.8148 12.0696 6.84866 12.3542 7.01796 12.5885C7.18727 12.8228 7.45815 12.9566 7.72904 12.9566H25.9461C26.2339 12.9566 26.5048 12.8228 26.6572 12.5885C26.8265 12.3542 26.8773 12.0696 26.7757 11.8019L26.4033 10.6973H31.8718V47.198H1.78648V10.714H7.25499L6.89945 11.8019Z" fill="#3D3D3D"/>
<path d="M16.8374 6.96549C17.3284 6.96549 17.7178 6.58057 17.7178 6.09523V4.58901C17.7178 4.10367 17.3284 3.71875 16.8374 3.71875C16.3464 3.71875 15.957 4.10367 15.957 4.58901V6.09523C15.957 6.56383 16.3634 6.96549 16.8374 6.96549Z" fill="#3D3D3D"/>
<path d="M4.69875 22.7131H12.2835C12.7745 22.7131 13.1639 22.3282 13.1639 21.8429V17.341C13.1639 16.8556 12.7745 16.4707 12.2835 16.4707H4.69875C4.20777 16.4707 3.81836 16.8556 3.81836 17.341V21.8429C3.81836 22.3115 4.20777 22.7131 4.69875 22.7131ZM5.59605 20.9559V18.2112H11.4201V20.9559H5.59605Z" fill="#3D3D3D"/>
<path d="M16.0923 20.4544H28.9932C29.4842 20.4544 29.8736 20.0695 29.8736 19.5841C29.8736 19.0988 29.4842 18.7139 28.9932 18.7139H16.0923C15.6013 18.7139 15.2119 19.0988 15.2119 19.5841C15.2119 20.0695 15.6013 20.4544 16.0923 20.4544Z" fill="#3D3D3D"/>
<path d="M4.69875 33.2073H12.2835C12.7745 33.2073 13.1639 32.8224 13.1639 32.337V27.8351C13.1639 27.3498 12.7745 26.9648 12.2835 26.9648H4.69875C4.20777 26.9648 3.81836 27.3498 3.81836 27.8351V32.337C3.81836 32.8224 4.20777 33.2073 4.69875 33.2073ZM5.59605 31.4668V28.7221H11.4201V31.4668H5.59605Z" fill="#3D3D3D"/>
<path d="M16.0923 30.9642H28.9932C29.4842 30.9642 29.8736 30.5792 29.8736 30.0939C29.8736 29.6086 29.4842 29.2236 28.9932 29.2236H16.0923C15.6013 29.2236 15.2119 29.6086 15.2119 30.0939C15.2119 30.5792 15.6013 30.9642 16.0923 30.9642Z" fill="#3D3D3D"/>
<path d="M4.69875 43.7171H12.2835C12.7745 43.7171 13.1639 43.3321 13.1639 42.8468V38.3449C13.1639 37.8595 12.7745 37.4746 12.2835 37.4746H4.69875C4.20777 37.4746 3.81836 37.8595 3.81836 38.3449V42.8468C3.81836 43.3154 4.20777 43.7171 4.69875 43.7171ZM5.59605 41.9598V39.2151H11.4201V41.9598H5.59605Z" fill="#3D3D3D"/>
<path d="M16.0923 41.4573H28.9932C29.4842 41.4573 29.8736 41.0724 29.8736 40.5871C29.8736 40.1017 29.4842 39.7168 28.9932 39.7168H16.0923C15.6013 39.7168 15.2119 40.1017 15.2119 40.5871C15.2119 41.0724 15.6013 41.4573 16.0923 41.4573Z" fill="#3D3D3D"/>
</svg>
