<svg width="49" height="48" viewBox="0 0 49 48" fill="none" xmlns="http://www.w3.org/2000/svg">
<path d="M34.6471 14.2604C32.0555 11.6986 28.5003 10.3027 24.6295 10.3027C17.0707 10.4998 11.007 16.5102 10.8076 23.9658C10.8076 28.4325 12.7347 32.3738 16.2068 35.0506C17.8515 36.4793 18.7154 38.1872 18.7154 40.01V44.1155C18.7154 46.5131 20.3268 47.8104 21.8552 47.8104H27.786C29.4639 47.8104 30.9258 46.3653 30.9258 44.7067V40.2071C30.9258 38.1872 31.9558 36.1344 33.6337 34.8535C36.9397 32.3574 38.8502 28.449 38.8502 24.1628C38.8502 20.5008 37.3218 16.8879 34.6471 14.2604ZM28.6166 41.9314V44.7067C28.6166 45.1993 28.301 45.5278 27.786 45.5278H21.8552C21.1242 45.5278 21.0245 44.7231 21.0245 44.1319V41.9314H28.6166ZM36.541 24.1464C36.541 27.6607 34.9794 30.8958 32.2549 33.0143C30.2115 34.6565 28.8492 37.1854 28.6665 39.6323H21.0245C20.9249 37.1854 19.7121 34.9028 17.6023 33.2113C14.7449 31.1422 13.1168 27.7757 13.1168 23.9494C13.3162 17.7747 18.6821 12.569 24.8289 12.569C27.9687 12.569 30.8926 13.7349 33.019 15.8533C35.3282 18.136 36.541 20.9934 36.541 24.1464Z" fill="#3D3D3D"/>
<path d="M24.8289 6.70652C25.51 6.70652 25.9918 6.23028 25.9918 5.55698V1.64856C25.9918 0.97526 25.51 0.499023 24.8289 0.499023C24.1478 0.499023 23.666 0.97526 23.666 1.64856V5.55698C23.666 6.23028 24.1478 6.70652 24.8289 6.70652Z" fill="#3D3D3D"/>
<path d="M39.9465 7.59361L37.1721 10.3361C36.707 10.7959 36.707 11.4856 37.1721 11.9454C37.4213 12.1918 37.8699 12.1918 38.0858 12.1918C38.3184 12.1918 38.6839 12.0111 38.7503 11.9783L41.5579 9.20296C42.0231 8.74315 42.0231 8.05343 41.5579 7.59361C41.0928 7.1338 40.4116 7.15022 39.9465 7.59361Z" fill="#3D3D3D"/>
<path d="M47.5884 23.0137H43.6346C42.9535 23.0137 42.4717 23.4899 42.4717 24.1632C42.4717 24.8365 42.9535 25.3127 43.6346 25.3127H47.5884C48.2696 25.3127 48.7514 24.8365 48.7514 24.1632C48.7514 23.4899 48.2696 23.0137 47.5884 23.0137Z" fill="#3D3D3D"/>
<path d="M38.8002 36.5617C38.335 36.1018 37.6373 36.1018 37.1721 36.5617C36.707 37.0215 36.707 37.7112 37.1721 38.171L39.9465 40.9135C40.1957 41.1598 40.6442 41.1598 40.8602 41.1598C41.2423 41.1598 41.5745 41.1598 41.6078 40.8642C42.0231 40.4044 42.0065 39.7475 41.5579 39.3041L38.8002 36.5617Z" fill="#3D3D3D"/>
<path d="M10.6584 36.5617L7.88403 39.3041C7.41887 39.7639 7.41887 40.4537 7.88403 40.9135C8.13322 41.1598 8.58177 41.1598 8.79774 41.1598C9.0137 41.1598 9.2629 41.1598 9.51209 40.9135L12.2864 38.171C12.7516 37.7112 12.7516 37.0215 12.2864 36.5617C11.8213 36.1018 11.1235 36.1018 10.6584 36.5617Z" fill="#3D3D3D"/>
<path d="M6.02302 23.0137H2.06915C1.38802 23.0137 0.90625 23.4899 0.90625 24.1632C0.90625 24.8365 1.38802 25.3127 2.06915 25.3127H6.02302C6.70415 25.3127 7.18592 24.8365 7.18592 24.1632C7.18592 23.4899 6.70415 23.0137 6.02302 23.0137Z" fill="#3D3D3D"/>
<path d="M10.6584 11.9449C10.9076 12.1912 11.3561 12.1912 11.5721 12.1912C11.8379 12.1912 12.0705 11.9613 12.2864 11.7478C12.7516 11.288 12.7516 10.5983 12.2864 10.1385L9.51209 7.39602C9.04693 6.95263 8.34919 6.95263 7.88403 7.39602C7.41887 7.85583 7.41887 8.54556 7.88403 8.98895L10.6584 11.9449Z" fill="#3D3D3D"/>
<path d="M24.8289 15.1807C24.1478 15.1807 23.666 15.6569 23.666 16.3302C23.666 17.0035 24.1478 17.4797 24.8289 17.4797C28.5004 17.4797 31.5904 20.5342 31.5904 24.1635C31.5904 24.8368 32.0721 25.313 32.7533 25.313C33.4344 25.313 33.9162 24.8368 33.9162 24.1635C33.8996 19.204 29.8294 15.1807 24.8289 15.1807Z" fill="#3D3D3D"/>
</svg>
